# xmcd CD database file
#
# Track frame offsets:
#	150
#	41687
#	67981
#	91473
#	98187
#	134389
#	145619
#	160205
#
# Disc length: 2641 seconds
#
# Revision: 0
# Processed by: cddbd v1.5.2PL0 Copyright (c) Steve Scherf et al.
# Submitted via: CDex 2.07
#
DISCID=670a4f08
DTITLE=The Charles Lloyd Quartet - Dream Weaver
DYEAR=1900
DGENRE=Jazz
TTITLE0=Bird Flight
TTITLE1=Love Ship
TTITLE2=Sombrero Sam
TTITLE3=Autumn Sequence-Autumn Prelude
TTITLE4=Autumn Sequence-Autumn Leaves
TTITLE5=Autumn Sequence-Autumn Echo
TTITLE6=Dream Weaver-Meditation
TTITLE7=Dream Weaver-Dervish Dance
EXTD=
EXTT0=
EXTT1=
EXTT2=
EXTT3=
EXTT4=
EXTT5=
EXTT6=
EXTT7=
PLAYORDER=
